<svg width="512" height="200" viewBox="0 0 512 200" fill="none" xmlns="http://www.w3.org/2000/svg">
<path d="M412 0C467.228 0 512 44.7715 512 100C512 155.228 467.228 200 412 200C356.772 200 312 155.228 312 100C312.001 77.2447 319.763 55.1702 334.004 37.4219C339.799 44.0834 341.895 48.028 348 58H351.5C348.408 50.3637 343.861 42.9351 337.736 33.0391C356.697 12.0086 383.684 0.00217 412 0ZM412 44C381.072 44 356 69.0721 356 100C356 130.928 381.072 156 412 156C442.928 156 468 130.928 468 100C468 69.0721 442.928 44 412 44Z" fill="#13BF95"/>
<path d="M256 0C200.772 0 156 44.7716 156 100C156.008 122.742 163.768 144.802 178 162.541C178.042 162.489 178.07 162.448 178.111 162.396C178.124 162.412 178.136 162.428 178.148 162.443C179.109 161.236 180.032 160 180.936 158.75C185.133 153.254 188.036 148.646 190.863 141.672C191.117 141.115 191.375 140.562 191.619 140H195C194.276 142.988 193.26 145.917 192.006 148.885C189.211 154.879 185.736 161.264 182.205 166.994C182.148 167.086 182.104 167.167 182.047 167.26C200.988 188.099 227.839 199.987 256 200C284.161 199.987 311.012 188.099 329.953 167.26C329.896 167.167 329.852 167.086 329.795 166.994C326.264 161.264 322.789 154.879 319.994 148.885C318.74 145.917 317.724 142.988 317 140H320.381C320.625 140.562 320.883 141.115 321.137 141.672C323.964 148.646 326.867 153.254 331.064 158.75C331.968 160 332.891 161.236 333.852 162.443C333.864 162.428 333.876 162.412 333.889 162.396C333.93 162.448 333.958 162.489 334 162.541C348.232 144.802 355.992 122.742 356 100C356 44.7716 311.228 0 256 0ZM256 44C286.928 44 312 69.0721 312 100C312 130.928 286.928 156 256 156C225.072 156 200 130.928 200 100C200 99.0335 200.024 98.0736 200.072 97.1191C201.572 67.5305 226.039 44 256 44Z" fill="#13BF95"/>
<path d="M100 0C44.7715 0 0 44.7715 0 100C0 155.228 44.7715 200 100 200C155.228 200 200 155.228 200 100C199.999 77.2447 192.237 55.1702 177.996 37.4219C172.201 44.0834 170.105 48.028 164 58H160.5C163.592 50.3637 168.139 42.9351 174.264 33.0391C155.303 12.0086 128.316 0.00217 100 0ZM100 44C130.928 44 156 69.0721 156 100C156 130.928 130.928 156 100 156C69.0721 156 44 130.928 44 100C44 69.0721 69.0721 44 100 44Z" fill="#13BF95"/>
</svg>
